<?xml version="1.0" encoding="utf-8"?>
<!-- Generator: Adobe Illustrator 24.1.2, SVG Export Plug-In . SVG Version: 6.00 Build 0)  -->
<svg version="1.1" id="Layer_1" xmlns="http://www.w3.org/2000/svg" xmlns:xlink="http://www.w3.org/1999/xlink" x="0px" y="0px"
	 viewBox="0 0 6553.6 6680.6" style="enable-background:new 0 0 6553.6 6680.6;" xml:space="preserve">
<style type="text/css">
	.st0{fill:#FFFFFF;stroke:#000000;stroke-miterlimit:10;}
	.st1{font-family:'HelveticaNeue-Bold';}
	.st2{font-size:0.645px;}
</style>
<g>
	<path class="st0" d="M4365.5,4777.3l-20,123.6c0.4,2.5,2.2,6.3,2.6,8.1c0.5,1.8,1.8,5.4,3.2,7.7c90-23.1,4.9-113.3,119.3-85
		c7.1,70.1-56.5,123.3-119.3,127.7c-10.2-17.4-37-68-41.7-92.5c-11.7-61.1,18.2-53.4,39.1-96.5c15.7-32.5,11.7-73.1,30.7-100.4
		c24.4-35.1,10.6,6.3,71.2-71.7c14.6-18.8,17.9-20.4,30.3-35.3c14.2-17,11.5-17,30.3-35.6l196.5-220c1.2-1,3.9-3.4,5.9-4.8
		c47.5,18.3,59.6,69.3,97.4,121.9l39.7,71c33.5,85,40.3,111.5,36.3,201.5c-2.2,51,20.8,113.7,27.7,166.3
		c-54.8-13.3-85.7-26.1-121.5-59.2L4653.8,4680c-114.9-107.5-71.1-125-149.6-127.2c11.2,53.3-6.1-1.7,36.3,53.9
		c8.4,11,4.4,7.6,12.8,19.6c57.9,81.5,410.5,383.2,523,377.1c62.4-109.4-31.1-220.9,23.1-264.2c5.4-4.4,180.1-30.4,135.1,202.8
		c-12.5,64.2-76,224-101.8,282.5c-22.2,50.3-181.4,119.8-235.8,139.2c-69.8,24.9-100.6-15-228.1-72.1
		c-64.1-28.6-105.8-83.9-297.1-132.4c-99.9-25.3-236.2,8.1-349.6,7.9c-128.5-0.4-254.7-3.9-383.2,5.3
		c-229.9,16.4-247.6-34.6-300.6-47.6c1.7-2.2,4.9-7.5,5.8-5.7l31.5-35.7c-17.3-0.6-17.4-1.3-32.4-3.2l-27.6-3.9
		c-1.9-0.3-5.5-0.9-8.4-1.3c-58.4-184-97.4-249.2-14.1-435.8c47.9-107.3,77.5-165.6,190.3-229.9c41.2-23.5,48.1-40.3,77.1-63.5
		c35.2,10.7,48,20.8,81.9,38.1c33.2,16.8,60.8,18.4,99.5,32.6c83.2,30.4,126,37.9,225,40.4c402.8,9.5,259.7-40.1,411.9-91.9
		c-32.8,225.8-36.3,221.8-125.7,365.4c-57.2,92.1,2.8,236,49.5,290.1c84.5,97.8,208.3,8.4,249.5-78.7
		c24.6-51.9,37.8-99.2-15.6-144.6C4493.6,4760.9,4422.6,4760.9,4365.5,4777.3z M1162.1,4362.7c39.6-27.1,30.8-38.7,59-70.3
		c8,5.9,101,171.3,180.7,80.6c14.4-16.4,57.4-189.4,82.8-238.1c24.4,39,11.2,50.1,9.9,122.8c-2.6,144.9-21.8,664.1-96.5,769.9
		c-20.4,28.9-21.9,25-45,31.2c-20.4-59.9-40.5-108.9-48.8-172c-11.4-86.2-30.3-93-53.3-166.3c-42.2-134.2-16.6-282.1-56.5-326.5
		c-2.2-2.3-9.9-8.5-12.4-11c-1.9-1.9-4.6-4.4-6.6-6.3c-1.9-1.9-5-5.2-6.7-6.8C1167.1,4368.2,1164,4365.4,1162.1,4362.7z
		 M3210.7,5014.7c-59.2-20.9-106.8-77.8-149.8-125.9c-181-202.3-195.2-219.8-172.1-434.2c8-74.7,24.3-104.1,62.1-158.4l110.2-120.4
		l76.8-33.3c97.4-26.8,96.1,38.1,267.9,62.3c67.6,126.3,48.2,63.5,112.9,131.1c-128.9,52.4-223.1,130.7-287.6,251.2
		C3103.8,4824.9,3203.1,4904.9,3210.7,5014.7z M3448.1,4224.8c3-1.5,7.5-6.5,9.2-3.5l37.2-5.2c23.2,1.3,31.1,8.3,55.3,9.7
		c43.2,2.7,77.8-5.3,131.5-1.7l485.6-21.5c86.2-16.5,174.5,4.5,268.2-7.1c-10.4,63.6-15.5,85.8-65.9,113
		c-172.2,93.3-141,107.7-411.8,101.7c-202.4-4.6-257.9-57.3-408.8-107.9C3490.1,4282.7,3500.5,4279.7,3448.1,4224.8z M1341.8,4277.9
		c-85-76.5-36.3-416.3-16.1-495.1c2.5-0.9,6.6-4.4,7.7-1.7c1,2.6,6.1-1.2,7.5-1c57.9,7.9,25,46.3,164.1,22.7
		c-3.1,258.3,24.8,244.3-82.7,391.8C1393.8,4233.7,1383.5,4255.2,1341.8,4277.9z M1601.1,4228.5l5.2-385.7
		c5.3-44.8,13.4-70.8,13.4-120.4c73.3,7.4,67.1,9.5,134.6-10.8c-3.2,48.6,8.3,116.2,1.9,159.5c-5.3,35.2-29.9,84.8-35.3,138.2
		c-12.9,124.9,56.5,36.6-60.9,181.9C1634.1,4222.9,1643.8,4218.3,1601.1,4228.5z M887.4,4570.9l-29.9-37.8
		c-80.2-150.9,126.3-316.2-136-259.3l17.9-35.7c6.1-11.4,11.4-19.4,20-34.8c16.1-28.9,22.1-40.4,30.1-70.2
		c17.9,16.5,9.3,4.8,23,29.9c13.9,25.5,21.7,70.6,61.3,101.7c167.5,131.8,229.9-96.6,279.4-184c15.2-27,22.2-48.4,35.2-77.5
		c-45.8,24-28.8,25.5-55.9,56.4c-36.3,41.3-132.7,132.1-186.2,152.9c-103.1-84.4-51-235.4-48.4-255c8.5-63.2-15.1-1.4,4-52
		c10.3-27.7,36.6-54.6,51-89.7c66.8,23.7,233.8,117.3,253.8-107.2c3.9-44.1-11-20.9,15.5-54.7c7.4,52.8,7.1,99.7-1.4,152.9
		c-26.4,164.7,15.7,126-51.2,332.7l-38.8,187.4C1118.2,4426.4,969.5,4552.6,887.4,4570.9z M1468.8,4923.3
		c11.6-166.2,81.4-139.1,100-273.1c13.9-100.9,14.2-200.6,27-314.3c42.6-2.2,65.5-6.7,92.1-28.6c68.4-56.9,5.8-39.3,66.8-79.3
		c-18.7,265.8-6.8,184.1-66.4,431.1c28.5-10.4,35.9-44.5,50.1-80.1c19.7-50.2,47-67.7,61.7-93.5c35.9-63.2,15.2-185.5,27.2-264.5
		c73.7-14.1,91.7,12,120.6-72.2c11.5-33.4-5.3-14.3,20.3-45.2c-0.3,75.5-26.2,150.4-45.3,222.8c25-13.9,14.1-6.6,28.1-32
		c26.4-48.4,16.5-82.4,55.5-120c61.4-59.2,48-85.7,59.6-181.3c95.1,5.9,79-3.1,134.6-34.3l-7,106.7c44.9-59.9,24.5-84.6,40.3-154.7
		c12.9-57.7,18.1-25.4,39.5-61.4c52.6-88.4-43.3-53.9,73.5-94.8c76.2-26.7,93.3-72.6,126.3-100.4c24.1,45.2-25,94.7-77.4,185.5
		c-43.7,76.1-80.6,79-123.3,161.3c-33.7,65-189.8,263.6-243.2,328.3l-134,152c-53.2,46.8-81.4,107.2-128.2,157.3
		c-47.3,50.7-97.3,96.2-141.8,143.1l-50.2,49.4C1533,4870.7,1521,4900.6,1468.8,4923.3z M1791.4,3651.3c181.3,82.3,68.9,41,176.9,24
		c0.9,52.9,5.4,229.8-6.2,268.7c-11.6,38.7-75,140-122,153.6l-24-232.1C1826.4,3682.4,1790.9,3748.6,1791.4,3651.3z M2042.1,3608.9
		c136.4,9.3,78-43.5,143.6-66.4c17.7,214.8,52.2,197.6-24.3,293.1c-31.6,39.5-29.5,54.8-72.6,57.3L2042.1,3608.9z M1338.1,3434.1
		l17.8-5c140.2-30.8,56.9-38.6,126.2-49.4c-4,206.2,72.1,148.6-21.4,271.6c-24.4,32.1-24.8,42.6-67.1,61.3
		C1368.5,3605.5,1333.9,3578.9,1338.1,3434.1z M1034.4,3772.8c-40.9-49.7-44.6-131.6-19.7-192.7c63.1-155.2,3.4-202.2,87.5-191.6
		c16,2.1,34.8,7.6,51.9,6.3c34.3-2.7,44-17.9,61.5-33.4c2.2-1.9,4.8-4.4,6.8-6.2l15.1-12.4c-2.5,154.6,7,147.8-55.6,260.3
		C1140.3,3677.8,1107.7,3751.3,1034.4,3772.8z M4449.6,4465.3c3.4-40.6,58.1-240.3,75.3-275.9c17.9-36.6,142.9-85.7,141.5-205
		c-1.3-104.8,9.8-51.5,34.6-123.7c32.5-94.8-51-189.8-14.4-278.1c17.3-42.1,34.2-98.2,68.9-114.6l-13.3,125.8
		c-8.4,85.9-8.3,80.5,4.4,161.1c29.8,187.4-51.5,444.4-177,567.2c-12.6,12.4-27.3,31.6-41,46.6
		C4465.2,4438,4494.2,4434.3,4449.6,4465.3z M2297.4,3640.3c-21.4-33.2-23-85.9-23.7-131.3c44.4-10.3,76.8-8.4,107.7-45.9l61.3-97.4
		c-3.1,106.2,16.9,101.3-37.3,175.7C2375.9,3581.8,2360.8,3636.6,2297.4,3640.3z M5589.8,3785.7c59-11.2,88.9-96.9,139.8-105.7
		c52.6-9,8.3-3.7,35.3,9c2.3,1.2,8.3,5,10.6,6.1c47.2,21.3,16.8-17.9,40.4,31.1c1,2.1,25,67.1,27,73.9
		c16.5,61,35.6,209.6,19.6,254.7c-86.2,242.9-69.5,169.3-263.4,352.2c-39,36.6-74.7,64.2-83.2,126.2c47.9,20.8,42.4,14.1,98.7,7.6
		c36.5,169.4,93,252.3,20,416.8c-126.7,285.5-42.7,111.6-170.2,314c-8.8,13.9-7.4,12-14.7,19.4c-25-23.7-61.5-86.2-122.9-48.2
		c-24.4,15.1-20,27.9-30.7,58.4c-12.5,35.6-21.4,42.6-29.7,69c-57.4-1.2-98.4-4.4-133.7-36.5c37.2-33.5,43.7-27.7,72.4-79.5
		c63.9-115.1,159.8-401,58.2-503.9l-10.8-11c-64-59.3-189.5-134.8-245.6-1.8c-42.4,100.9,55.6,133.7,33.3,176
		c-14.2,27-67.9,31.9-72.2-51.2c-10.2-189.5,12.4-271.6-86-454.5c-24.6-45.7-45.3-51.5-65.4-87.9c-24.5-44.1-16.6-45.3-52.6-67.7
		l-29.3-16.5l31-80.5c54.8-104.2,33-164.2,34.2-259.7c0.5-36,12.8-57.7,11.1-109.8c-1.3-40.9-3.9-79.6-3.1-121.1
		c1.8-92.5,1.8-143.7,45.7-202.2c25.4-10.3,370.5-26.3,416.7-22.3l437.1-23C5685.5,3534.4,5570.4,3687.7,5589.8,3785.7z
		 M1592.9,3297.4c99.1,11.9,2.6,25.7,134.3-1.4c-2.6,162.2,2.5,131.2-53.2,250c-16.9,36-13.3,49.5-46.1,64.8L1592.9,3297.4z
		 M4870.3,3390.2c72.9-198.8,254.1-278.9,307.2-393.2c114.7-2.2,279.4-39.1,352.7,49.3c36.8,44.2,20.9,63.5,40.3,105.3
		c38.1-16.3,17.2-25.5,33-58.2c22.8,19.6,127.2,217.2,123.5,233.2l-440.3,44.6C5204,3378.8,4922.4,3416.3,4870.3,3390.2z
		 M1869.1,3577.8c-22.8-20.9-20-15-31.3-46.3c-29-80.8-27.2-130.7-26.4-212.9c129.7,3.1,82.2-53.7,130.8-101.7
		c7.1,69.5-7.2,130-4.9,206.5C1939.4,3497.7,1918,3535.8,1869.1,3577.8z M2278.5,3379.1c-1.9-76.6,11-76.2-7.5-197.6
		c2.8-1.2,7.6-4.8,9.2-2.1l67.6-46.2c29.8-64.5,47.9-161.9,72.9-234c3-8.3,4.8-16.1,8.4-24.6c12.9-30.3,1.2-9.2,12.9-24.5
		c13.5,61.4,34.2,275.8,16.1,338.6C2446.8,3228.4,2327.7,3373,2278.5,3379.1z M2055.7,3499.1c-21.3-44.6-27.2-203.3-8.5-259.2
		c30.8-92.5,34.3,19.4,82.3-148.7c7-24.3,16.4-38.7,24.8-51.9c1.9,46.4,11.5,82.7,7.9,128.9c-3.5,46.1-9.7,81.8-7.7,134.4
		c2.5,68.2,6.3,68.9-25.9,116C2102.3,3456.8,2089.9,3479.6,2055.7,3499.1z M4580.6,3442.1l-192.2,18.6c-52.2,11.1-35-1.7-49,28.4
		c108.8,44.8,308.3-85.4,283.6,71.9l-15.9,51.2c-28.5,51.9-122.2,14.6-267.3,41.9l-149,16.5c-138.3,19.6-168.1,50.3-328.2,11.1
		c-103.2-25.3-11.9,12.9-143.8-43.3L3383.7,3489c42.7-94.2,41-238.3,35.5-338.8c-139.5-7.9-82.3,119.1-77,195.6
		c4.6,66.4-13.3,110.9-11.9,176.1c93.1,28.5,39.3,11.2,129.5,56.9c94.7,47.9,304.3,149.6,398.1,156.5
		c236.7,17.3,157.9,11.2,353-12.3c108.4-12.9,252.6-39.1,360.1-21.3c36.5,20.8,72.1,133.8,56.4,203.2
		c-34.1,149.3-85.5,245.4-288.3,254l-240.3,12.4c-175.3,11.2-339,10.1-516.8,0.1c-94.7-5.4-335.7-78.3-415.3-135.3
		c-139.6-100-385.7-128-387.5-426.4c-1.2-167.3-22.8-75,7.9-243.3c10.4-57.7,38.3-159.8,54.7-211.1c22.6-69.9,59.9-115.5,87-187.8
		c58.4-156.5,32.9-77.5,95.9-178.9l44.5-56c45.2-43,6.8-43.3,70.2-82.7l15-8.3c120,105,46.4,107.5,273,126.2
		c181.6,15,75.1,40,362,13.7c58.7-5.4,229.5-83,282.7-121.1l113.7-94.9c34.2-40.3,26.6-48.5,97.3-97.3c43.2,43-9.2,20.3,86.6,102
		c60.1,51.6,8,28.3,97.7,90.6c78.3,54.4,199.1,263.4,244.9,325.1c87.6,117.7,25.8,231.8-33.9,400.6l-19,37.8c-6.8-6.2-8-5.4-17.2-17
		c-7-8.8-6.2-8.1-13.4-19.7c-10.7-17.4-9.9-20.5-25-40.5c-39.1-51.6-104.1-206.2-193-217.5
		C4427.3,3198.2,4569.8,3311.9,4580.6,3442.1z M4823.6,3279.6c-42.7-97.4,22.4-241.2,36.6-335.7c58.1-4,79-21.5,119.2-27
		c47.2-6.5,43.2,1.9,94.2,39.9c1.4,1.2,4.6,3.4,7,5c-16.3,36.6-0.9,8.3-30.2,40.6c-93.3,103.1-74.1,66.2-166.5,195.2
		C4854.8,3238.4,4857.5,3254,4823.6,3279.6z M2543.4,3461.5l6.8-284.2c103.1,12.6,114.3-8.9,149.4-87.3
		c22.2-49.4,26.6-140.5,38.4-203.2c57.5,17,52.9,47,134.2,48.5c-7.5,23.1-91.3,179.7-129.3,295c-36.4,110.6-2.6,57.4-97.1,112.9
		c-70.7,41.7-44.4,45.3-68.4,84.8C2555.4,3464.2,2570,3444.5,2543.4,3461.5z M2517.1,2631.4c89.3,72.6,94.6,119.7,132.6,154.3
		c28.6,25.9,24.8,11.1,52,44.5c-5,43.3-91.3,207.3-138.8,248.9c-23.9-50.3-27.9-168.4-36.8-236.6
		C2513.2,2744.3,2440.7,2694.1,2517.1,2631.4z M1093.2,3316.7c4-48.9,5.4-64.1,5-113.5c-0.3-55.9,38.6-233.8,51.5-288.3
		c6.1-25.7,12.9-71.2,19.4-92.5c11.6-38.3,22.7-31.2,35.3-84.8c14.7-61.9-10.2-31.7,70.6-96.2c29.7-23.7-11.2-15.9,44.2-22.8
		c-11.1,36.9-35,142.2-40.1,180.1c-10.7,79.3-7.6,139.1-27.5,171.2C1185.6,3076.5,1281.8,3277.8,1093.2,3316.7z M1320.8,2588.5
		c28.6-24.9,31.5-28.4,55.6-64.5c27.9-41.7,21.8-53.9,79.3-59.2c-5,214,45.8,135.7,64.2,189.6l-20.6,142.8
		c-14.2,66.6-52.6,129.3-12.5,262.7c31.9,106.2,4.4,104.2-36,175.3c-34.1,59.7-45.9,100.2-121.4,117.3c-6.7-73.8-0.6-132.5-2.2-204
		c-2.6-126.2,53.5-531.9,53.5-533.1c-24.6-22.1-7.7-5.5-29.5-14.4c-3-1.2-12.9-4.6-15.6-5.8c-2.1-0.8-5.9-2.6-7.5-3.2
		C1326.5,2591.4,1322.8,2590.2,1320.8,2588.5z M2999.3,2523.5c99.3,48.1,83.6-7.7,101.8,87l-21.4,13.2
		c-31.1,21.7-42.1,45.9-62.6,80.9c-28.1-56.5-78.2-39.6-114.7-83.9c-25.2-30.6-12.8-21.3-45.8-53.3c-27.5-26.7-24.9-25.2-37.2-66.7
		c67.7-33.7,1,18.1,125.9-43.7c1.7,2.2,3,5.8,3.9,7.4c0.8,1.7,2.7,5.5,3.7,7.5l15.2,28.8C2979,2514.6,2980.7,2514.5,2999.3,2523.5z
		 M1614.8,3201.5c-44.6-62.2-62.6-184-55.5-283.9l25.8-294c12.8-57.9,76.1-43.7,104.2-160.1l61.1,25.7
		c-57.2,65-37.7,66.4-41.3,165.1c-2.8,74.1-7.6,145.3-4.4,220.2c10.3,237.6,36.3,71.2-45.5,261.4
		C1641.1,3178.1,1647.8,3184,1614.8,3201.5z M1822.8,3186.8c-13.5-85.3-29.2-144.4-30.8-235.7c-1.8-105.8-18.1-162.4,4.1-248.5
		c51.7-199.7-14.7-88.2,68.2-195.2l58.3-73.5c36.4-42.7,10.7-54.2,45.4-97.3c4.4,45.9-6.7,63.6-7.6,109.1
		c-0.9,43.6,5.7,73.5,4.6,121.9c-2.1,92.8-39.7,533.1-119.2,602.9C1826.6,3187.3,1851.9,3170.6,1822.8,3186.8z M2019.9,3056.1
		c3.7-55.7-2.7-97.8-1.5-149.6c1-47.9,20.8-75.9,28.9-115.2c18.4-88.5,7.7-168.9,17.2-257l-31,55.9c-19.7-82.7,6.5-160.5,23.6-254
		l10.3-51.2c1.2-47.7-31.2,15.6-77.1,16.5c2.7-36,13.2-51.5,32.6-77.1c87.2,23.9,187.1,116.2,242.5,165.6l214,182.4l-96.1,221.9
		c-30.6,63.5-74.4,135.8-104.8,204.6c-64.2-87-49.4-251.7-48.9-355.4c0.5-102.2-11.9-77.5-33.4-87.7c4-56.4,28.1-64.1,22.7-96.1
		c-11-65,18.4,49.9-10.6-23.4l-9.3-52c-0.1-2.8,0.3-4.3-0.5-6.2c-37.5,2.1-53.3,9.2-59.9,47.6l-16.8,305.7
		C2128.8,2813.9,2104.6,3010.5,2019.9,3056.1z M5145.7,2896.6c-76.2-24.5-77-41.9-118.3-51.1c-56.4-12.5-101,12.5-146.6,16.6
		c2.2-48.9,43.1-156.4,55-226.2c7.7-45.5,10.6-84.6,18.7-123.7c30.2-146.3,51.3-182.9,76.8-374.1c5-37.5,42.7-199.8,66.8-228.5
		l118.6,220.7c101,237.5,109.7,436.2,5.3,669.7c-9.8,21.8-21.4,37.4-36.1,53.4C5165.5,2875.6,5163,2870.9,5145.7,2896.6z
		 M1246,2596.9c2.2-81.4,10.4-128.4,59.1-188c1.4-1.7,3.6-4,5-5.8c49.2-59.9,27.9-75.2,79.2-107.5c67.1-42.1,214.8-68.4,315.6-101.5
		c100.1-32.9,155.1-11.5,246.1,7.7c-21.9,61.5-43.5,85.9-65.4,149.4c-17.7,50.8-29,60.9-83,113.7c-45.3-20.9-34.1-63.7-135.5-64.5
		c-39.1,57.7-93.4,146.2-152.4,186.9c1.3-77.4,28.6-148.2-11.6-191.8c-65.5-39.2-161.1,96.5-192.2,139.7
		C1287.2,2568.2,1289.3,2574.2,1246,2596.9z M281.4,4418.6c57.2-17.8,135.5-86.2,178.5-128.9c32.1-31.9,143.3-119.1,159.3-159.8
		c19.6-49.9-24-0.3,59-96.5c44.5-51.6,32.5-37.3,51.9-102.7c42.4-143.1,55.6-52.9,85.4-231.1c16.8-100.1,2.6-169.8,31.5-276.6
		c49.3-182.2-10.3-314.5,68.1-556.7c26.8-82.8,17.7-96.1,70.3-248.9c52.8-152.7,35.9-70.6,77.4-231.4c5.5-21.5,36.6-87.6,48.1-105.3
		l102.7-138.9c150.9-156.2,389.1-262.3,613-225c327.3,54.3,432.3,287.9,659.9,299.3c-0.4,63.2,45.2,121.8,86,163.1
		c29.5,29.8,48.5,34.1,72.8,59.2l121.1,130.9c27.3,26.2,35.7,41.8,65.3,66.8l119.5,77.1c13.2,8,12.6,6.1,21.7,14.4
		c2.6,2.3,4.8,4.9,7,7.4l13.5,17.9c-37.7,25.5-85.7,117.3-100.2,157.1l-185-172.1c-65.1-101.9-75.6-107.6-167.3-193.8
		c-34.1-32.1-60.6-65-89.7-87.6l-234.3-206.2l-185.8-86.3c-251.7-62.1-155.3-81.5-426.1-3.6c-96.1,27.6-191.3,47.2-261.4,100.1
		c-168.4,127.2-271,574.2-303.2,772c-27.7,170.2-21.8,284.3-104.9,434.1c-35.2,63.2-22.3,74.7-31.5,153.3
		c-5.7,48.1-61.3,235.7-83.3,269.9c-93.9,144.9-90.4,233.6-139.2,311.9c-91.7,148-22.2,98.8-263.6,186.7
		c-23.7,8.6-42.3,15-63.7,24.4C264.9,4452.3,293.6,4425.4,281.4,4418.6z M2560.3,1876.4c0.9-0.6-11.7-28.9,40-10.6
		c35.5,12.6,21.2,17.5,30.3,37.2C2560.3,1901.6,2587.1,1912.9,2560.3,1876.4z M4196.2,1840.6c-96.8-49.4-24.1,22.8-78.8,84.8
		c-40.5,45.8-72.9,60-120.6,92.2c2.5,1.3,6.5,0.1,7.7,3.1c15.5,37.2,240.1-142.8,269.9-157.3c42.6,40.8,117.1,119.3,124.6,186.4
		c34.2,306-191.3,426.8-322,550c-135.3,127.6-109.1,76.2-215.8,101.8c-36,8.6-25.9,13.9-66.1,22.8
		c-117.8,26.2-460.9,33.5-543.4-35.6c-31-26.1-55.7-44.4-75.2-79c-74.7-132.5-19.5-36.8-44.4-97.8c-63,9.7-153.9-3.1-125-69.3
		c40.4-44.2,96.1-0.5,150-60.1l9.9-11.9c3.2-3.4,14.4-12.6,17.5-15c110-82.7,26.7-33.4,79.2-86.7c36.4,8.1,35.2,9.5,55.7,33.9
		c-29.4,13.3,0.9,1.9-31,4.5l-37.4,6.5c32,47.9,57.5,28.6,99.5,10.3c59.5-26.1,25,3.7,131.7-33.8c53.4-19,189-83.2,178.9-126.2
		c-15.2-11.9,24.1-27.3-28.6-7.9c-31.2,11.5-74.4,108-148.2,91.5c-39.3-8.8-56-8.5-99.7-9.7l-11,38.3l-92.8-21.2
		c2.2-5,5-12.5,6.1-10.6c3.9,7.5,17.7-47.3,61.3-78.3l144.1-119.1c64.9-36.1,113.7-8.1,157.5-40.9c-12.6-17.4,16.6-9.2-24.6-18.1
		c-9.2-2.1-32.5,2.1-44.2,4.5c-31.1,6.6-58.4,17.4-86.3,25.7c-30.4,9.2-46.8,7.7-62.8,29.8c-12.6,17.4,8.6,18.3-52.1,50.7
		c20.3-55.5,89.1-274.4,125.7-298.3c-1.2,70.7,216.7,111.7,290.9,88.2c52.4-16.6,173.9-112.4,184-229.9
		c104.9,6.7,197.9-41.3,239.1-53.5c40.4,43,69.7,156.5,65.8,170.2l-43.6,56.9c0.8,0-6.3-37.7-33.2-46.8L4196.2,1840.6z
		 M5279.4,1626.9c-39.9,101.3-128.5,71.2-135.1,72.1l-1-52.8c35.9,8.1,52.5,34.2,59.5-15.2c5.4-38.6-12.8-32.1-40.3-63.7l21.2-90.4
		C5276,1476,5314.9,1536.7,5279.4,1626.9z M5037.9,1703.8c-35-84.4,26.8-184.6,106.7-212.5c-5.9,125.3-48.1,58.2-63.6,124.4
		c-11.9,51.2,32.5,93.3-2.8,159.3L5037.9,1703.8z M3252.4,1015.7c130.8-53.9,40.5-7.7,150-78.6c95.1-61.7,142.8-102.4,228.9-188.7
		c21.5-21.7,71.5-70.4,95.7-76c21.5-4.9,12.1,4,45.2-3.9c143.7-34.1,141.9-22.2,196.5,64.2l-60.9,44l44.9,10.2
		c23,5,2.5,0.4,20.5,5.9l15.6,5.8c48.4-36.4,26.3-34.8,106.4-39.6c215.6-12.8,134.3,183.8,160.7,212c41,34.3,84.9-7.1,139.1,47.6
		c52.8,53.2,63.5,69.8,73.3,117.4c10.8,52.9,33.4,97.8,0.9,153.3c-28,47.9-40.8,54.7-115.1,54.7c-24.4-30.2-43.9-72-101.1-54.2
		l0.5,68.5c5.4,27.7,6.7,35.2-0.1,65.8c-5,22.8-17.8,50.8-20.4,69.4l-3.7,52.9c-49.9,32-170,49.8-222.4,36.5
		c-29-21.3-34.2-50.8-92.2-48.6c0.6,113.5,57.8,87.9-30.3,181.6c-70.6,75.1-147.7,144.2-236,124.8c-202.2-44.4-89.4-117.9-132.7-205
		c-67.6,6.1-37.4,73.5-27,133.4c-44.1,17.2-93.5,79.6-110.7,131.5c-17.8,54.1-15.4,106-48.8,171.2L3180.9,2286
		c-19,21.8-36.8,33.7-55.2,64.2l-81.4-4.6l9.3-64.5c-44.1-18.8-27.6,23.5-38.8-8.5c-0.9-2.8-5-1.3-7.4-2.5
		c1.7-47.7,22.1-90.3,3.9-131.2c-59.7,0.3-64.9,27.2-70.4,78.6c-6.3,59.7,4.1,79,7.6,129.4c-215.7,99.2-211.4,65.7-312.1,1.4
		c-121.8-77.7-85.3-279.8-44-321.2c55.6-55.7,55.5-40.1,83.2-60c39.2-27.9-11,0.9,52.1-69.4c-109.8-31-65.7-28.6-193.4-72.4
		c-47.1-16.1-39.9-26.1-59-74.3c-48.4-122.4,29.2-184.6,107.2-261.1c44.5-43.6,84.4-79.5,152.9-109.7c-0.8-65.7,1.5-45.4,16.8-71.5
		c30.3-52.1,8.5,8.4,6.8-57.8L3252.4,1015.7z M3218,881.6c32.9-33.5,6.5-34.8,59.3-102.4c22.8-29.2,44.9-52.6,74.6-79.2
		c36-32.1,57.7-34.7,105.1-59.6c72.8-38.2,72.8-58.6,116.2-6.5c-6.5,27-122.6,134.9-144.4,154c-48.2,42.1-116,97.4-175.3,132.5
		l-200.2,101.3c-115.6,26.7-104.9,54.6-218.5,74.7c13-44.2,95.5-153,145.5-185.1C3152.4,800.5,3139.8,878,3218,881.6z
		 M2299.2,1202.6c-65-110.3-39.7-102.9,4.3-220.6c22.2-59.6,22.3-37.3,63.9-91.5c82-107.1,191.8-152.2,241.1-198l86-57.2
		c15.2-7.7,32-16,50.2-27c82.3-49.5,363.4-183.8,451.4-208.7c129.9-36.9,212.9-55.9,335.9,20.9c113,70.4,110.4,20.9,84.4,152.7
		c-70.4-6.6-121.7-55.5-258.1,67c-121.5,109-58.1,32.9-160.2,180.2c-56.4,8.1-192.4-2.3-285.4,88.2
		c-40.3,39.2-122.2,161-148.9,221.8C2637.3,1151.7,2428.2,1208.4,2299.2,1202.6z M3705.8,615.5c-5.5-175.6,1-166.9-159.7-241.6
		c-148.6-69.1-175.7-60.8-323.9-20.4c-193.3,52.6-273,118.7-434.1,190l-265,151.2c-42.4,30.3-81.7,54.4-121.9,86.7
		c-80.1,64.4-135.1,145.4-177.3,239.7c-38.4,85.7-8.5,230.4,107.3,282.1c31.1,13.9,306.4-25.8,363.5-33.4
		c2.6,42.3,8.3,45.9,11.6,80.9c-502.2,228-209.8,571.6-142.4,596.9c-17.4,44.8-10.2,16.5-32,51.9c-30.6,49.7-29.2,133.3-50.7,146.7
		c-51.7,13.8-64.6-8.8-102.3-34.6c-32.4-22.1-58.3-35-86.4-56c-61.1-45.7-105.7-64.4-172.5-102.2c-28.6-16.3-51.5-44-84.9-56.9
		c-229.4-88.5-451.4-64.8-667.5,48c-6.2,3.2-40.1,20.8-43,22.8l-29.7,24.3c-48.2,20.4-71.3,50.4-116.8,82.6
		c-65.4,46.6-119.2,111.3-163.1,177.3c-28,42.1-65.4,147.2-83.6,202.2l-64,209.8c-12.4,56.8-29.9,59-41.2,101.5L762.8,3247
		c-1.4,23.9-0.4,68.1-4,109.8c-7,82.8-30.7,153.6-32.1,242c-1.9,122.4-32,231.3-73,343.8c-8.8,24.3-10.2,27.1-20.8,47.1
		c-15.1,28.3-21.7,5-4.3,35.5c-61.9-0.4-42.7,20-76,58.2c-14.8,17-36.3,33.3-60.9,60.1c-81.7,88.8-85,62.3-133.7,107.9l-199.7,174
		c-48.1,48-63,67.9,7.4,73.7c53.8,4.5,108.6,8.3,161.5-5.3c35-8.9,47-23.5,74.4-34.2l123.5-40.6c91.6-38.1,173.6-100.9,264.1-124.8
		c-13,136.4-31,263.7,80.9,314.3c60.9,27.6,102.2-11.4,146.2-39.7c24.8-16,37.9-20,65.4-44.5c28.9-25.9,14.4-31.7,51.1-46.2
		c16.9,128,7.5,193.1,57.9,304.5c19.9,43.9,19.5,85.5,35.3,140.2c44.8,154,98.7,307.2,252.2,119.6c41-50.3,132.9-148.9,156.1-194.5
		l11.6,50.3c-33.7,244.1-6.6,315.3,122.4,514.2c34.1,52.6,75.1,79.3,116.8,119.2c-44.2,140.4-98.9,211.4-39.5,384.6
		c30.8,89.7,81.1,142.4,139.6,201.9c68.4,69.5,295.8,152.7,400.1,160.1c33.9,2.5,73.7,15.2,108,10.2l190.9-30.7
		c44.8-7.7,62.4,2.3,107.3-2.2c42.3-20.4,27.2-25.8,55-43.1c23.4-14.7,50.7-13.7,74.6-24.8l114.7-82.7c46.2-28.4,49.7-48.6,114.8-82
		c51.2-26.1,43.9-72.5,91.3-106.7l179.7,138.3c138.8,105.5,275.8,143.3,450.1,187.4c236.1,59.7,270.3,55,491.3-73
		c52.2-30.2,46.2-47.2,92.2-72.1c52.2-28.1,48.6-14.2,82.6-71.3c32.1-53.9,44.2-36.4,71.6-91.2l28.9-49.5c36.3-48.9-0.5-0.4,45-33
		c27.3-19.6,30.8-73.4,47.1-105.5c22.7-45.2,44-63.3-5.7-95.5c-48.9,33.3-67.6,122-100.8,164.2L4421.6,6019
		c-85.8,57-106.9,80.9-208,120.9c-51.6,20.5-52.8,38.7-116,48c-141.9,20.8-538.7-96.4-639.8-191.7c-63.9-60.2-137.8-65-187.1-142.3
		l-61-103.9c-20.8-34.6-44.4-69.1-89.4-74.8c4.6,25.5,1.5,16.8,16.5,38.3c0,0,17.2,20.5,20,24c23.7,29.3,26.7,30.8,33.5,73.8
		c-53.8,37-107.3,114.4-173.8,154c-144.6,86-253.8,222.8-444.7,216c-56.9-1.9-105.7,14.7-149.6,4.8
		c-144.2-32.4-211.1-20.9-372.1-111.5c-174.5-98.2-172.5-289.9-95.7-457.3c18.4-40.6,139.2-161,24.3-187.3l-43.9,41.2
		c-68.9-23.2-135.8-118-173.6-183.4c-11.2-19.5-34.7-52.8-41.5-68.9c-43.3-102.4,15.4-315.7,24.9-412.4
		c10.6-105.3-2.5-72,60.5-150.4l178.3-162.9c40.5-29,69.5-84.1,102.9-116.9c24.1-23.7,34.4-57,71.3-61.9l30.1-2.2
		c93.9-1.2,186.5-17.3,278.1-13.7l24.9-3.4c1.3-3,5.3-2.2,8-3.2c17.7-55.3-27.1-52.9-59.7-89c5.5-60.4,61.9-191.7,102.8-238.4
		c66.2-75.3,164-70.4,250.3-89.3c-28.1-50.2-102.8-32.9-158-16.9c-292.2,84.9-195.4,337.6-294.1,354.6l-139.7,23
		c12.4-19,24.6-32,38.2-47.9c20.8-24.1,17.3-23.1,36.3-51.5c27.9-41.9,44.9-63.5,89.3-84.2c1.3-79.7,45.7-104.5,86.4-157.4
		c43.9-56.9,52.1-78.6,89-152c23.7-47,18.2-35.2,35.6-85.8c9.7-28.1,27.9-48,40.4-79.6c24.9-62.4,34.4-112.8,66.3-169.3
		c15.7,24.8,8.3,22.3,10.3,49.7c19.1,240.6,23.1,178.3,69.7,281.2c45.4,100.2,43.9,96.5,113.8,171.1
		c62.1,66.1,102.6,70.2,166.2,119.3c15.5,11.9,64,45,91.6,51.6c-13.5,10.6,0.1,1.8-22.2,14.1l-61.7,36.1
		c-117.4,67.6-245.6,257.2-258.7,401.5c-14.4,159.1,172.9,390.4,292.8,497.7c58.1,52,84.1,69.5,169,97
		c44.1,14.2,125.7,82.7,167.7,93.5c122.2,31.1,148.5-2.8,237,6.7l341.6,2.8c115.8-2.1,267.6-30.7,375.3,4.3
		c33.5,10.8,73.7,11.9,101.8,28.9l166.7,97c80.5,42.3,177.3,108.9,268.1,104.1c28.5-1.5,70.7-22.4,97.3-35.1
		c24-11.4,62.4-24.6,90-40.5c78.7,33.9,161.9,74.3,236.7,0.3c13-53.9,7.5-59.7,35.6-99.7c42.6,12,5.5-3.6,37,20.5
		c5.8,4.5,22.8,18.2,29.5,23.5c-5.7,36.9-25.4,72.5-47.6,93.4c15.5,37.4-20.1-38.2,9.4,15.7c7,12.9,0.9-5.5,12.5,25.8
		c-55.6,33.4-185.6,203.2-402.6,152.4c-85.1-20-166.3-10.4-234.1-51.9c-31.6-19.4-56.5-44.1-60.6-82.2
		c-5.9-56.2,15.6-83.3-44.1-86.3c-47.6,104.5,30.3,197.9,93.1,234.4c73,42.3,352.2,71.5,424.2,51.6l133.8-42.2
		c58.7-43.7,118.4-126.2,148.9-191.1l156.6-195.4c42.6-54.3,154.2-279.6,146.6-358c-19.1-197-85.8-318.4-93.5-389.7
		c164.7-177.8,143.1-115.5,244.1-360.2c43.5-105.4-51-380.2-77.5-486.7l-60.4-31.6c28.5-44.2,158.4-153.1,193-173.9
		c74.7-44.9,178.7-58.4,247.3-98.2c-106-24.3-240.7-114.4-337.6-177.3l-69.4-62.6c-38.1-33.8-115.2-75-151.2-112.5
		c-36.4-38.1,1.9-37-64.2-55.5l-17.4,37.5c-0.6-1.8-2.7,5.4-4.4,8c-29-45.3-94.6-51.7-144.1-67.3c-86.4-27.5-65-20-148.9-28.6
		l-17.7-5.4c25.4-51.6,13.9-9.5,24.8-75.5c24-145.4,59.5-63,79.1-293.1c9.2-107.1-24.3-271.2-66.4-369.2
		c-26.3-61.1-27.3-66.4-59.5-115.6l-142.3-222.7c4.4-33.7,8.4-61.8,24.5-85.4c47.1,16.3,87.6,39.6,133.1-1
		c16.5-14.8,67.3-68,75.3-99.3c81.3-316.7-444.3-211.4-342.5,79c6.1,17.4,16.8,55.6,21.8,65.5c16,31.6,21.3,7.9,33.3,56.1
		c17.3,70.6-53.3,208-62.4,282c-10.2,81.9-33.7,213.6-60.2,291.2c-52.2,152.4-56.9,414.8-144.9,541.4c-20.8-18.1-11-12.3-24.5-45.9
		c-51.9-129-138.4-211.3-235.2-301c-46.2-42.7-29.7,11.1-71.1-50.4c-31.9-47.3-79.1-86.4-138.4-102.3c1.9-2.8,4.6-6.2,5.9-8.3
		c1.2-1.9,3.9-5.5,5.3-8l30.4-57.9c49.5-70.4,76.1-145.3,82.6-237.1c7.1-99.3,23.5-80.1-33.4-154c-40.5-52.6-38.7-73.8-98.7-107.2
		c-0.6-41,12.9-119.5,29.4-144.9c-18.1-14.4,5.4-0.4-16-7.5c-1-0.4-5.2-1.2-6.1-1.4l-12.8-2.3c-10.1-42.3-33-89.8-53-120.9
		c73.9-95.6,112.1-46.7,123.5-207.4c142.8-9,98.6-39.1,176.1-98.6c-4.9-66.7-7.4-182.3-45.8-230c-61.9-77-73.1-78.7-166.9-122.8
		c16.4-167.6-35.3-131.8-116.4-231.1l-179.1-4.3C3983.5,574.1,3825.3,574,3705.8,615.5z"/>
	<path class="st0" d="M4084.3,2378c-39.7,55.2-85.5,103.6-156.6,128.1c-48.4,16.6-110.6,16.8-172.4,21.2
		c-72.5,5.2-48.6,4.8-62.6,17.4c28,14.8,325.1,48.9,389.7-159.5c11,2.8,121.1,71,136.7-24.6L4143,2371c-24-24.8-21.8-26.4-40.3-50.1
		c-22.4-28.6-20.4-30.2-53.7-24.4L4084.3,2378z"/>
	<path class="st0" d="M2931.4,3634.8c19.9,53.2,149.4,96.8,209.5,18.6l-7.7-21.7c-48.6-19.9-57.7,26.4-117.8,17.3
		C2986.7,3644.6,2909.9,3577,2931.4,3634.8z"/>
	<path class="st0" d="M3604.4,3368.1c21,26.7,12,29,65.8,27.7c63.5-1.7,152.1-68.4,161-99.2c-75.2,3.9-88.5,42.2-166.8,54.2
		c-6.2,1-26.2,2.5-28,3L3604.4,3368.1z"/>
	<path class="st0" d="M3886.5,1962c78.7-31.6,48.4-99.9,256.3-173.9l47.1-23.1c-21.5-10.2-4.4-19.1-88.2,14.2
		c-29.7,11.9-60.1,28-88.9,42.7C3962.7,1847.4,3899.3,1904.4,3886.5,1962z"/>
	<path class="st0" d="M4429.2,3862.4c10.3,11.7-5.9,39,97.9,39.6c52.4,0.4,69,0.3,72.8-47.6
		C4549.5,3846.8,4492.2,3861.6,4429.2,3862.4z"/>
	<path class="st0" d="M3628.9,2622c18.6-41.8,69.7-119.2,54.7-167.2c-49.4-20.4-29.4-9.7-58.4,109.7
		C3611.1,2622.3,3616.3,2605.3,3628.9,2622z"/>
	<path class="st0" d="M4280.9,3116.7c63.3-2.1,89.5-22.6,122.6-56c-6.7-33.2,0.3-24.9-21.5-50.2
		C4359.3,3019.6,4286.3,3106.8,4280.9,3116.7z"/>
	<path class="st0" d="M4571.7,4006.1c1.5-19.5,17.5-5.4,14.7-50.2c-49.9-12.4-112.6,1-127.6,31.5L4571.7,4006.1z"/>
	<path class="st0" d="M4251.8,4268.6c40.4,17.3,55.1-1.7,66.7-32.9C4284.9,4203.2,4262.9,4226.7,4251.8,4268.6z"/>
	<path class="st0" d="M3815.8,2335.9c37.5,16.1,24.5,7.2,35.7-26.3C3776.8,2321.2,3829.1,2318.5,3815.8,2335.9z"/>
	<path class="st0" d="M3913.5,2270.2c6.3,4-4.6,22.7,27,0C3910.5,2240.9,3927.5,2258.8,3913.5,2270.2z"/>
</g>
<text transform="matrix(1 0 0 1 0 6555.5352)" class="st1 st2">Created by Alex Muravev</text>
<text transform="matrix(1 0 0 1 0 6556.1807)" class="st1 st2">from the Noun Project</text>
</svg>
