<?xml version="1.0" encoding="utf-8"?>
<!-- Generator: Adobe Illustrator 24.1.2, SVG Export Plug-In . SVG Version: 6.00 Build 0)  -->
<svg version="1.1" id="Layer_1" xmlns="http://www.w3.org/2000/svg" xmlns:xlink="http://www.w3.org/1999/xlink" x="0px" y="0px"
	 viewBox="0 0 100 86.6" style="enable-background:new 0 0 100 86.6;" xml:space="preserve">
<g>
	<path d="M50,5c-11.6,0-23,5.4-32.2,15.3C9.6,29,4.5,40.2,4.5,49.5c0,21,17.4,34,45.5,34s45.5-13,45.5-34c0-9.3-5.1-20.5-13.3-29.3
		C73,10.4,61.6,5,50,5z M50,80.5c-20.5,0-42.5-8.1-42.5-31C7.5,33.2,25.8,8,50,8s42.5,25.2,42.5,41.5C92.5,72.3,70.6,80.5,50,80.5z"
		/>
	<path d="M50,58.5c2.8,0,5-3.1,5-4.5s-2.2-2.5-5-2.5s-5,1.1-5,2.5S47.2,58.5,50,58.5z"/>
	<path d="M88,43.3c-1.5-5.6-5-10.4-9.8-13.6C73,26.2,66.5,25,60.4,26.5c-3.9,0.9-7.4,2.7-10.4,5.3c-3-2.6-6.6-4.4-10.5-5.3
		c-6.1-1.4-12.5-0.3-17.8,3.2c-4.8,3.2-8.3,8-9.8,13.6v0.1c-0.2,0.7-0.3,1.3-0.5,2c-0.4,2.1-0.5,4.2-0.4,6.3c0,0.6,0.1,1.2,0.2,1.8
		c0,0.3,0.1,0.6,0.1,0.8s0.1,0.6,0.2,0.9s0.2,0.7,0.2,1.1s0.1,0.4,0.2,0.6c0.1,0.4,0.2,0.8,0.4,1.2l0.2,0.5c0.1,0.4,0.3,0.8,0.5,1.2
		l0.2,0.4c0.2,0.4,0.4,0.8,0.5,1.2l0.2,0.4c0.2,0.4,0.4,0.8,0.6,1.1l0.3,0.4c0.2,0.4,0.5,0.7,0.7,1.1v0.1l0.4,0.6l0,0
		c0.1,0.2,0.3,0.4,0.5,0.6c3.8,4.3,8.6,7.4,14.1,9c6.3,1.9,12.9,2.8,19.5,2.7c6.6,0.1,13.2-0.8,19.5-2.7c5.2-1.6,9.8-4.4,13.5-8.3
		c0.3-0.4,0.7-0.8,1-1.3l0,0l0.2-0.3l0.2-0.2l0.1-0.1c0.1-0.2,0.3-0.4,0.4-0.6c0.3-0.4,0.5-0.8,0.7-1.2s0.5-0.8,0.7-1.3
		c0.1-0.2,0.2-0.3,0.2-0.5c0.2-0.4,0.4-0.8,0.6-1.3l0.2-0.5c0.2-0.4,0.3-0.9,0.5-1.3l0.2-0.5c0.1-0.5,0.2-0.9,0.4-1.3
		c0-0.2,0.1-0.3,0.1-0.5c0.1-0.5,0.2-1,0.3-1.4c0-0.2,0.1-0.3,0.1-0.5c0.1-0.6,0.2-1.2,0.2-1.9l0,0l0,0c0-0.2,0-0.5,0-0.8
		s0-0.5,0-0.8s0-0.4,0-0.7s0-0.6,0-0.9c0,0,0-0.1,0-0.1c-0.1-1-0.2-2-0.4-3l0,0c-0.1-0.7-0.3-1.3-0.5-2L88,43.3z M85.9,50.6
		c0,0.3,0,0.5,0,0.8c0,0.5-0.1,1.1-0.2,1.6c0,0.2,0,0.3-0.1,0.4c-0.1,0.4-0.1,0.8-0.2,1.2l-0.1,0.5c-0.1,0.4-0.2,0.8-0.3,1.2
		c0,0.2-0.1,0.3-0.1,0.4c-0.1,0.4-0.3,0.9-0.5,1.3l-0.2,0.4c-0.2,0.4-0.4,0.9-0.6,1.3s-0.3,0.6-0.4,0.8L83,61.1
		c-0.2,0.3-0.4,0.6-0.6,0.9l-0.1,0.2c-3.2,0-6.4-0.6-9.4-1.8C64.3,56.9,59,49.7,61.2,44.3c1-2.5,3.5-4.3,7.1-5
		c4.2-0.7,8.6-0.2,12.5,1.5c1.4,0.6,2.7,1.2,3.9,2c0.1,0.2,0.1,0.3,0.2,0.5s0.2,0.5,0.2,0.8c0.2,0.6,0.3,1.2,0.4,1.8
		c0.1,0.8,0.2,1.6,0.3,2.3c0,0.1,0,0.3,0,0.4s0,0.5,0,0.7s0,0.5,0,0.7S85.9,50.5,85.9,50.6L85.9,50.6z M17.7,62.2
		c-1-1.6-1.8-3.2-2.4-5l-0.1-0.3c-0.1-0.3-0.2-0.7-0.3-1c0-0.2-0.1-0.4-0.1-0.5c-0.1-0.3-0.1-0.6-0.2-0.9s-0.1-0.5-0.1-0.8
		s-0.1-0.4-0.1-0.7c-0.1-0.5-0.1-1-0.2-1.5c0-0.1,0-0.1,0-0.2c-0.1-1.8,0-3.6,0.3-5.4l0,0c0.1-0.6,0.3-1.2,0.4-1.8
		c0.1-0.3,0.2-0.5,0.2-0.8s0.1-0.3,0.2-0.5c1.2-0.8,2.6-1.4,3.9-2c8.6-3.5,17.4-1.9,19.6,3.5s-3.1,12.7-11.7,16.1
		C24.1,61.6,20.9,62.2,17.7,62.2z M68.6,71.9c-6,1.8-12.3,2.7-18.6,2.6c-6.3,0.1-12.5-0.7-18.5-2.6c-4.3-1.3-8.3-3.6-11.5-6.8
		c2.8-0.2,5.6-0.9,8.2-1.9c10.2-4.1,16.2-13,13.4-20S28.3,33.9,18.1,38l-0.7,0.3c1.5-2.4,3.6-4.5,6-6.1c3.2-2.1,7-3.3,10.9-3.3
		c1.5,0,3,0.2,4.5,0.5c3.8,0.9,7.3,2.7,10.1,5.5l1,1l1-1c2.8-2.7,6.3-4.6,10.1-5.5c5.3-1.2,10.9-0.2,15.5,2.8c2.4,1.6,4.5,3.7,6,6.1
		L81.9,38c-4.5-1.9-9.4-2.5-14.2-1.6c-4.6,0.9-7.9,3.3-9.3,6.8c-2.8,7,3.2,15.9,13.4,20c2.6,1,5.4,1.7,8.2,1.9
		C76.8,68.3,72.9,70.6,68.6,71.9z"/>
	<path d="M34.8,50.2c0-0.8-0.7-1.5-1.5-1.5s-1.5,0.7-1.5,1.5c0,2.1-1.7,3.8-3.8,3.8c-2.1,0-3.8-1.7-3.8-3.8c0-0.8-0.7-1.5-1.5-1.5
		s-1.5,0.7-1.5,1.5c0,3.8,3.1,6.8,6.8,6.8C31.7,57,34.8,54,34.8,50.2z"/>
	<path d="M77.3,48.7c-0.8,0-1.5,0.7-1.5,1.5c0,2.1-1.7,3.8-3.8,3.8c-2.1,0-3.8-1.7-3.8-3.8c0-0.8-0.7-1.5-1.5-1.5s-1.5,0.7-1.5,1.5
		c0,3.8,3.1,6.8,6.8,6.8c3.8,0,6.8-3.1,6.8-6.8C78.8,49.3,78.2,48.7,77.3,48.7z"/>
	<path d="M58,60.2c-2.1,2.2-5,3.3-8,3.2c-3,0.1-5.9-1.1-8-3.2c-0.6-0.6-1.5-0.7-2.1-0.1c-0.6,0.6-0.7,1.5-0.1,2.1
		c2.7,2.8,6.4,4.4,10.3,4.2c3.9,0.1,7.6-1.4,10.2-4.2c0.6-0.6,0.5-1.6-0.1-2.1S58.6,59.6,58,60.2z"/>
</g>
<text transform="matrix(1 0 0 1 0 109.2047)" style="font-family:'HelveticaNeue-Bold'; font-size:5px;">Created by JustineW</text>
<text transform="matrix(1 0 0 1 0 114.2047)" style="font-family:'HelveticaNeue-Bold'; font-size:5px;">from the Noun Project</text>
</svg>
