<?xml version="1.0" encoding="utf-8"?>
<!-- Generator: Adobe Illustrator 24.1.2, SVG Export Plug-In . SVG Version: 6.00 Build 0)  -->
<svg version="1.1"
	 id="Layer_1" xmlns:cc="http://creativecommons.org/ns#" xmlns:dc="http://purl.org/dc/elements/1.1/" xmlns:inkscape="http://www.inkscape.org/namespaces/inkscape" xmlns:rdf="http://www.w3.org/1999/02/22-rdf-syntax-ns#" xmlns:sodipodi="http://sodipodi.sourceforge.net/DTD/sodipodi-0.dtd" xmlns:svg="http://www.w3.org/2000/svg"
	 xmlns="http://www.w3.org/2000/svg" xmlns:xlink="http://www.w3.org/1999/xlink" x="0px" y="0px" viewBox="0 0 100 102.9"
	 style="enable-background:new 0 0 100 102.9;" xml:space="preserve">
<g transform="translate(0,-952.36218)">
	<path d="M37.2,957.6c-3.9-0.8-6.1,0.9-6,4.7c-1.1,1.1-1.8,2.3-1.9,3.6c-1.5,1.1-3.2,2.6-4.4,4.7c-13.1,3.7-22.1,16.6-17.8,29.5
		c2.6,5.5,7.3,9.4,11.8,11.2c-1,1.1-1.2,2.4-0.6,3.6c0.3,0.5,1,0.8,1.7,1.1c-0.7,1.4-0.6,3.3,0.9,4.8c-0.3,2.8,1.2,4.9,3.4,6.1
		c1.6,2.8,4.1,4.1,7,4.2c0.3,0.7,0.7,1.3,1.3,1.8l-0.1,5.8l-1.4,0.7c-1,0.4-1.5,1.8-1,2.8c0.5,1,1.9,1.3,2.9,0.7l2.4-1.3
		c0.6-0.3,1-1,1-1.7l0.1-6.1c1.4-0.1,2.9-0.5,4.4-1l-0.4,9.9l-1.4,0.8c-1,0.4-1.5,1.8-1,2.8c0.5,1,1.9,1.3,2.9,0.7l2.4-1.3
		c0.6-0.3,1-1,1-1.7l0.4-10.1c2.6,1.9,6.2,2.2,8.8,1.2c2.7,3.4,8.6,2.2,11.8,1.1v3.7l-1.3,0.7c-1,0.4-1.5,1.8-1,2.8
		c0.5,1,1.9,1.3,2.9,0.7l2.4-1.3c0.6-0.3,1-1,1-1.7v-4.8c1.5-0.3,3-1.1,4-2l-0.1,9.6l-1.3,0.7c-1,0.4-1.5,1.8-1,2.8
		c0.5,1,1.9,1.3,2.9,0.7l2.4-1.3c0.6-0.3,1-1,1-1.7c0-4.7,0-9.3,0-13.4c3.6,1.1,6-0.7,7-3.8c3.8-1.1,5.1-3.9,5.2-7.3
		c4.2-3,4.7-7.4,4-11.6c0.9-3.9-0.2-7.2-3-9.3c0.6-4.7-2.4-7.2-6.4-7.5c-2.8-4.7-7-5.5-11.1-3.4c-1.9-4-4.9-5.1-8.6-3.7
		c-0.4-1.6-1.2-3-2.4-4c0-0.6-0.1-1.3-0.2-1.9c1-0.9,1-2,0.8-3.2c0.7-1.2,1-2.6,0.8-4.1c-0.4-1.8-1.2-2.6-2.8-3.1
		c-0.6-1.9-2.2-2.6-4-2.6c-0.4-3-2.7-4.9-5.4-5.2c-1.4-1.8-3.4-3.2-5.6-2.8C43.3,955.9,40,955.8,37.2,957.6L37.2,957.6z M44.7,959.7
		c0.2,0.4,0.8,0.6,1.2,0.4c1.8-0.3,3.2,0.9,4.2,2.3c0.2,0.3,0.5,0.4,0.8,0.4c2.2,0.3,4.5,2,4.1,4.2c-0.1,0.7,0.6,1.3,1.2,1.2
		c1.3-0.2,2.1,0.1,2.8,1.2c-0.2,0.6,0.4,1.3,1,1.2c1.1,0,1.3,0.8,1.6,1.6c0.2,1.1-0.2,2.5-0.6,3c-0.3,0.3-0.3,0.8-0.1,1.2
		c0.3,0.8,0,1-0.5,1.4c-0.7,0.4-1.9,0.4-2.2,0.2c-0.3-0.2-0.7-0.2-1,0c-2.2,0.2-4.6-0.8-5.7-2.6c-1.4-2-3.4-3-5.6-3.5
		c-2.9-2.8-7-4.9-11.5-3.6c-2-0.3-2.9-1.1-3.1-1.9c-0.2-0.8,0.1-1.9,1.5-3.1c0.3-0.2,0.4-0.5,0.4-0.9c-0.4-3,1.5-3.5,3.9-2.9
		c0.3,0.1,0.6,0,0.9-0.2C39.7,958.4,43.4,957.5,44.7,959.7L44.7,959.7z M29.8,967.9c0.8,1.3,2.3,2.2,4.4,2.5c0.2,0,0.3,0,0.5,0
		c3.8-1.3,7.4,0.5,10,3.2c0.2,0.2,0.4,0.3,0.6,0.3c1.8,0.4,3.2,1.3,4.4,2.5c-1.4,1.2-2.3,2.7-1.9,5.3c2.2,6.3,1.6,8.3,1,10.8
		c-2.1,1.6-2.6,4.4-1.6,6.9c-1.2,1.9-2.3,3.9-1.7,6.1c-7.3,4.6-14.8,6.2-21.1,5.2c-7.7-1.2-12.7-6-15.4-11.4
		c-3.9-11.8,4.5-23.7,16.8-27c0.3-0.1,0.5-0.3,0.7-0.5C27.3,970.3,28.5,968.9,29.8,967.9z M28.8,971.8c-0.8,0.8-0.9,1.9-0.3,2.5
		c0.6,0.6,1.7,0.4,2.5-0.3c0.8-0.8,1-1.9,0.4-2.5C30.3,970.8,29.6,971.2,28.8,971.8z M34.1,972.6c-0.8,0-1.5,0.9-1.5,2
		c0,1.1,0.7,2,1.5,2s1.5-0.9,1.5-2C35.6,973.5,34.9,972.6,34.1,972.6z M50.9,977.9c1.8,1.6,4.6,2.8,6.8,2c0.8,0.3,1.6,0.3,2.4,0.1
		c0.1,0.4,0.1,0.8,0.1,1.3c0,0.3,0.2,0.6,0.4,0.8c1.9,1.9,2.9,4.1,1.5,6.7c-0.3,0.3-0.4,0.9-0.1,1.3c0.8,1.7,0,3.3-1.1,4.6
		c-0.2,0.2-0.3,0.6-0.2,0.9c0.3,2.3-0.8,4.8-3,5.1c-0.7,0.1-1.1,0.9-0.7,1.5c0.5,1.3,0.4,2.1-0.5,3c-0.5,0-1,0.5-1,1
		c0.1,2-2.4,3.4-4.1,2.4c-0.2-0.1-0.5-0.2-0.8-0.1c-1.7,0.6-3-1-2.7-2c0.1-0.5,0-0.5-0.2-0.9c-1-2.2,0.3-4.1,1.4-5.8
		c0.2-0.3,0.2-0.7,0-1c-1-2-0.7-4.2,1.1-5.2c0.2-0.1,0.4-0.4,0.5-0.6c0.6-2.6,1.3-5.4-0.9-11.9C49.4,979.6,50,978.6,50.9,977.9
		L50.9,977.9z M15.5,987.1c-0.6,0.1-0.9,0.6-0.9,1.1c0.2,1.6,0.4,2.9,0.9,3.9c0.3,0.7,0.8,1.3,1.5,1.7c-0.3,1.1-0.8,2.6-0.8,4.2
		c-0.1,1.9,0.3,4.1,1.9,5.8c0.4,0.4,1,0.4,1.4,0c0.4-0.4,0.4-1,0-1.4c-1.2-1.3-1.5-2.7-1.4-4.3c0.1-1.4,0.4-2.7,0.7-3.9
		c0.8,0,1.5-0.2,2.4-0.6c1.2-0.6,2.6-1.4,4.1-2.7c0.4-0.3,0.5-1,0.2-1.4c-0.3-0.4-1-0.5-1.4-0.2c-1.5,1.2-2.8,2-3.8,2.4
		s-1.7,0.5-2.1,0.4c-0.4-0.1-0.7-0.3-1-1c-0.3-0.7-0.6-1.7-0.7-3.2C16.6,987.5,16,987,15.5,987.1L15.5,987.1z"/>
</g>
<text transform="matrix(1 0 0 1 0 115)" style="font-family:'HelveticaNeue-Bold'; font-size:5px;">Created by AFY Studio</text>
<text transform="matrix(1 0 0 1 0 120)" style="font-family:'HelveticaNeue-Bold'; font-size:5px;">from the Noun Project</text>
</svg>
